<?xml version="1.0" encoding="utf-8"?>
<!-- Generator: Adobe Illustrator 23.0.2, SVG Export Plug-In . SVG Version: 6.00 Build 0)  -->
<svg version="1.1" id="Layer_1" xmlns="http://www.w3.org/2000/svg" xmlns:xlink="http://www.w3.org/1999/xlink" x="0px" y="0px"
	 viewBox="0 0 72 80.43" style="enable-background:new 0 0 72 80.43;" xml:space="preserve">
<style type="text/css">
	.st0{fill:#EEBBA2;}
	.st1{fill:#052135;}
	.st2{fill:#052338;}
	.st3{fill:#335496;}
	.st4{fill:#F2F2F0;}
	.st5{fill:#EDDAD3;}
	.st6{fill:#163342;}
	.st7{fill:#FFFED1;}
</style>
<g id="Grupo_1032" transform="translate(-279.974 -20.504)">
	<g id="Grupo_1030" transform="translate(279.974 20.504)">
		<g id="Grupo_1029" transform="translate(0 0)">
			<g id="Grupo_996" transform="translate(5.29 9.843)">
				<g id="Grupo_995">
					<path id="Caminho_1166" class="st0" d="M25.81,13.4l-5.26,6.88c0,0-0.58,0.88-1.55,2.72c-1.27,2.41-2.4,5.06-2.4,5.06
						s0.7,0.83,1.18,0.55c0.77-0.45,4.81-6.45,4.85-6.91s4.16-4.59,4.16-4.59S26.76,13.67,25.81,13.4z"/>
				</g>
			</g>
			<g id="Grupo_998" transform="translate(0 47.414)">
				<g id="Grupo_997">
					<path id="Caminho_1167" class="st1" d="M20.5,14.7c-0.04,0.43,0.06,0.86,0.27,1.23c0.36,0.7,2,2.5,1.88,3.23s-2,0.65-3.18-0.65
						s-2.95-2.64-2.88-2.95c0.67-0.87,1.5-1.6,2.46-2.14C19.67,13.21,20.5,14.7,20.5,14.7z"/>
				</g>
			</g>
			<g id="Grupo_1000" transform="translate(27.417 49.787)">
				<g id="Grupo_999">
					<path id="Caminho_1168" class="st2" d="M18.67,13.43c0.57,0.24,1.17,0.42,1.78,0.53c0.83,0.11,2.85-0.22,3.42,0.33
						s-0.66,2.14-2.51,2.37s-4.23,0.63-4.46,0.38c-0.3-1.02-0.38-2.09-0.23-3.14C16.86,13.24,18.67,13.43,18.67,13.43z"/>
				</g>
			</g>
			<g id="Grupo_1002" transform="translate(13.896 5.188)">
				<g id="Grupo_1001">
					<path id="Caminho_1169" class="st0" d="M19.66,15.36c-0.01,0.71,0.06,1.41,0.23,2.1c0.23,0.58-3.21-1.03-3.21-1.03
						c0.17-0.93,0.16-1.88-0.05-2.79C16.25,12.6,19.66,15.36,19.66,15.36z"/>
				</g>
			</g>
			<g id="Grupo_1004" transform="translate(16.177 26.585)">
				<g id="Grupo_1003">
					<path id="Caminho_1170" class="st3" d="M26.04,21.4l-4.23,2.83c0,0-0.89-0.62-1.94-1.41c-0.26-0.19-0.52-0.4-0.79-0.6
						c-0.79-0.59-1.53-1.24-2.21-1.95c-1.14-1.31,1.35-9.62,4.5-5.91C21.37,14.35,25.2,19.21,26.04,21.4z"/>
				</g>
			</g>
			<g id="Grupo_1006" transform="translate(11.751 26.544)">
				<g id="Grupo_1005">
					<path id="Caminho_1171" class="st3" d="M25.54,13.4c0,0-1.66,8.63-3.61,11.72c-1.81-0.32-3.59-0.76-5.35-1.31
						c0,0,0.04-6.51,0.19-8.23C16.92,13.99,25.54,13.4,25.54,13.4z"/>
				</g>
			</g>
			<g id="Grupo_1008" transform="translate(11.543 8.211)">
				<g id="Grupo_1007">
					<path id="Caminho_1172" class="st4" d="M27.33,31.77c-0.05,0.16-0.13,0.54-0.28,0.93c-0.13,0.34-0.68,0.43-0.83,0.44
						l-9.24,0.77c0,0,0.44-7.16-0.25-10.97c-0.42-3.06,0.18-6.17,1.72-8.84c0.17-0.25,0.36-0.49,0.57-0.71c0,0,3.2,0.99,3.36,1.02
						c0.3,0.24,0.56,0.53,0.79,0.84l0,0c1.21,1.38,2,3.07,2.28,4.88c0.18,2.78,2.07,4.76,2.31,7.89c0.02,0.29-0.01,0.46,0,0.69
						c0,0.6-0.06,1.19-0.18,1.77C27.54,30.93,27.45,31.35,27.33,31.77z"/>
				</g>
			</g>
			<g id="Grupo_1010" transform="translate(14.509 13.242)">
				<g id="Grupo_1009">
					<path id="Caminho_1173" class="st0" d="M29.6,21.32c-0.02,0.03-0.05,0.06-0.08,0.07c-0.31,0.15-0.65,0.26-0.99,0.33
						c-1.96,0.49-6.03,1.07-7.23,0.85c-1.58-0.29-4.71-7.35-4.71-7.35l2.88-1.82l2.36,4.79c0.22,0.45,0.57,0.81,1.01,1.05
						c0.5,0.29,1.05,0.47,1.62,0.53c1.04,0.04,2.49,0.04,3.54,0.05c0.49,0,0.89,0,1.13,0h0.23C29.36,19.82,29.79,20.86,29.6,21.32z"
						/>
				</g>
			</g>
			<g id="Grupo_1012" transform="translate(27.193 48.792)">
				<g id="Grupo_1011">
					<path id="Caminho_1174" class="st0" d="M18.68,13.4l0.21,1.02l-2,0.48l-0.3-1.05L18.68,13.4z"/>
				</g>
			</g>
			<g id="Grupo_1014" transform="translate(2.394 46.662)">
				<g id="Grupo_1013">
					<path id="Caminho_1175" class="st0" d="M18.76,14.76l-0.67,0.72l-1.5-1.28l0.69-0.8L18.76,14.76z"/>
				</g>
			</g>
			<g id="Grupo_1016" transform="translate(27.102 18.41)">
				<g id="Grupo_1015">
					<path id="Caminho_1176" class="st0" d="M16.7,14.65c0.29-0.18,0.52-0.43,0.69-0.73c0.33-0.43,0.9-0.61,1.42-0.46
						c0.39,0.15,0.86-0.09,1.02,0.18s-0.3,0.62-0.24,0.87s0.39,1.38-0.53,1.68c-0.92,0.29-1.73-0.07-2.21,0.09
						S16.7,14.65,16.7,14.65z"/>
				</g>
			</g>
			<g id="Grupo_1017" transform="translate(21.291 34.581)">
				<path id="Caminho_1177" class="st3" d="M20.93,13.4c0,0,0.81,2.23,2.72,9.55c0,0,1.11,4.05,1.3,4.51s-3.41,1.25-3.42,0.77
					s-3.83-10.15-4.83-12C15.81,14.6,20.93,13.4,20.93,13.4z"/>
			</g>
			<g id="Grupo_1018" transform="translate(2.61 35.293)">
				<path id="Caminho_1178" class="st3" d="M31.17,16.19C30.02,18.78,18.8,26.41,18.8,26.41s-0.78-0.48-1.43-0.96
					c-0.13-0.1-0.26-0.2-0.38-0.29c-0.13-0.1-0.24-0.21-0.35-0.33c-0.47-0.54,2.35-3.23,2.35-3.23c6.32-7.29,6.76-8.2,6.76-8.2
					s0.68,0.03,1.71,0.17c0.15,0.02,0.3,0.04,0.46,0.07C29.83,13.95,31.87,14.62,31.17,16.19z"/>
			</g>
			<path id="Caminho_1179" class="st5" d="M35.55,28.86l-3.95,1.7c0,0-0.11-0.27-0.27-0.7l3.95-1.76
				C35.46,28.55,35.55,28.86,35.55,28.86z"/>
			<path id="Caminho_1180" class="st3" d="M34.72,23.47c-1.61-0.24-3.19-0.62-4.73-1.15c0.17-0.25,0.36-0.49,0.57-0.71
				c0,0,3.2,0.99,3.36,1.02C34.23,22.88,34.5,23.16,34.72,23.47z"/>
			<g id="Grupo_1019" transform="translate(13.255 1.4)">
				<path id="Caminho_1181" class="st0" d="M21.34,14.25c0.35,0.57,0.65,1.17,0.88,1.79c0,0.31-0.37,0.31-0.18,0.64
					s0.6,0.93,0.4,1.13s-0.65,0.1-0.75,0.52s-0.63,1.71-1.22,1.71c-1.03-0.21-1.98-0.71-2.74-1.43c-0.13-0.41-0.9-2.73-1.15-3.17
					s4.01-2.59,4.38-1.89L21.34,14.25z"/>
			</g>
			<g id="Grupo_1020" transform="translate(12.555)">
				<path id="Caminho_1182" class="st6" d="M21.97,15.5c0.35-0.16,0.53-0.56,0.41-0.93c-0.17-0.8-0.96-1.3-1.76-1.13
					c-0.08,0.02-0.16,0.04-0.24,0.07c-1.23,0.4-2.17,1.24-3.02,1.38s-1.05,0.97-0.3,2.52s1.07,2.31,1.07,2.31s0.24-1.34,0.56-1.28
					s0.84-0.83,0.84-0.83l0.09,0.23l0.57-0.04c0,0-0.75-1.62-0.35-1.83C20.23,15.76,21.9,15.68,21.97,15.5z"/>
			</g>
			<g id="Grupo_1021" transform="translate(14.956 4.388)">
				<path id="Caminho_1183" class="st6" d="M17.79,13.4c0,0,0.38,1.39,0.7,1.4c0.55,0.03,1.09,0.15,1.6,0.35
					c0.09,0.08,0.13,0.21,0.09,0.32c-0.07,0.2-0.26,1.4,0.13,1.8c0,0-0.27,0.43-1.63-0.05c-0.75-0.25-1.46-0.63-2.08-1.12
					c0,0,0.98-1.86,0.63-2.67L17.79,13.4z"/>
			</g>
			<g id="Grupo_1022" transform="translate(14.193 3.549)">
				<path id="Caminho_1184" class="st0" d="M17.89,13.82c-0.17-0.36-0.6-0.51-0.96-0.33c-0.06,0.03-0.11,0.06-0.16,0.1
					c-0.52,0.38,0.17,1.64,0.71,1.62S18.19,14.47,17.89,13.82z"/>
			</g>
			<g id="Grupo_1024" transform="translate(14.092 11.544)">
				<g id="Grupo_1023">
					<path id="Caminho_1185" class="st7" d="M21.46,17.31l-3.95,1.7c0,0-0.11-0.27-0.27-0.7c-0.42-1.2-1.12-3.61-0.21-4.35
						c2.16-1.78,3.61,1.12,4.17,2.59C21.37,17,21.46,17.31,21.46,17.31z"/>
				</g>
			</g>
			<g id="Grupo_1026" transform="translate(4.097 23.531)">
				<g id="Grupo_1025">
					<path id="Caminho_1186" class="st0" d="M19.58,14.2c0,0-0.31,0.65,0.07,1.02c0.26,0.3,0.45,0.66,0.56,1.04
						c0.08,0.23,0.61,0.91,0.28,0.93s-0.94-1.1-1.12-1.32c-0.18-0.22-0.47,0.77-0.71,0.89s-2.34-0.75-2.04-1.4
						c0.3-0.65,1.17-0.97,1.21-1.09s0.38-0.87,0.38-0.87L19.58,14.2z"/>
				</g>
			</g>
			<g id="Grupo_1028" transform="translate(2.812 25.518)">
				<g id="Grupo_1027">
					<path id="Caminho_1187" class="st0" d="M20.06,14.65c-0.37,0.69-0.81,1.35-1.31,1.95c-0.22,0.05-0.35-0.03-0.26-0.21
						s0.99-1.88,0.99-1.88s-1.81,1.98-1.96,2.06c-0.09,0.05-0.36-0.1-0.33-0.2s1.67-2.18,1.67-2.18c-0.58,0.66-1.2,1.28-1.86,1.87
						c-0.14,0.02-0.37-0.15-0.25-0.3s1.54-1.96,1.54-1.96s-1.35,1.26-1.53,1.21c-0.11-0.03-0.35-0.15,0.02-0.46s1.11-1.15,1.11-1.15
						L20.06,14.65z"/>
				</g>
			</g>
			<path id="Caminho_1188" class="st3" d="M36.04,49.4c-0.26-0.19-0.74-0.57-1-0.77c0.6-1.45,1.08-2.94,1.45-4.46
				C36.72,45.92,36.56,47.71,36.04,49.4z"/>
		</g>
	</g>
</g>
</svg>
